<svg width="61" height="13" viewBox="0 0 61 13" fill="none" xmlns="http://www.w3.org/2000/svg">
<path fill-rule="evenodd" clip-rule="evenodd" d="M27.421 2.14987V3.68698C27.421 4.23778 27.7121 4.71952 28.2182 4.90153C28.5292 5.0134 29.7542 4.96788 30.1765 4.96788H33.2145C34.0646 4.96788 33.9446 4.84679 33.9446 6.20221C33.9446 6.46072 33.7761 6.69129 33.5207 6.69129H29.1402C28.902 6.69129 28.7634 6.44491 28.7634 6.15564H27.4917C27.385 6.15564 27.421 6.27511 27.421 6.52828C27.421 7.30754 27.87 7.91756 28.5993 8.01802C28.8519 8.05279 31.012 8.06844 31.2534 8.03574C31.5633 7.99371 33.4563 8.01635 33.9213 8.0191C34.3601 8.02171 34.6482 7.84855 34.8691 7.62882C35.0786 7.42046 35.287 7.1184 35.287 6.71459V4.89801C35.287 4.36536 34.8399 3.92002 34.4162 3.80286C34.0566 3.70345 32.9512 3.75685 32.4609 3.75685C32.095 3.75685 29.2856 3.78067 28.9985 3.75729C28.8492 3.7451 28.7634 3.6373 28.7634 3.47737V2.49921C28.7634 2.22169 28.9943 2.03343 29.2815 2.03343H33.4265C33.7701 2.03343 33.9446 2.22342 33.9446 2.56908H35.287C35.287 1.96235 35.3444 1.56421 34.8925 1.11928C34.767 0.995693 34.6957 0.928768 34.5338 0.845228C34.3955 0.77382 34.2263 0.705933 34.0153 0.705933H28.6692C28.3336 0.705933 27.9411 0.96769 27.7811 1.15518C27.5683 1.40459 27.421 1.69936 27.421 2.14987Z" fill="black"/>
<path fill-rule="evenodd" clip-rule="evenodd" d="M6.10739 6.69215H1.72704V2.05745C1.86996 2.00285 4.24063 2.03429 4.60024 2.03429C5.07002 2.03429 5.57216 2.01718 6.03777 2.03338C6.31991 2.0432 6.58992 2.27924 6.64062 2.50851C6.70482 2.79885 6.67272 5.38498 6.67272 5.87703C6.67272 6.10284 6.63707 6.30908 6.53634 6.44084C6.46494 6.53426 6.26099 6.69215 6.10739 6.69215ZM0.384644 8.04295H6.36655C6.94229 8.04295 7.37914 7.83497 7.7156 7.39741C7.89613 7.16269 8.01512 6.82938 8.01512 6.50584V2.26716C8.01512 1.92074 7.88525 1.53209 7.67933 1.29503C7.52796 1.1208 7.38623 0.979576 7.16766 0.869437C7.01942 0.794755 6.80123 0.706787 6.57851 0.706787H0.384644V8.04295Z" fill="black"/>
<path fill-rule="evenodd" clip-rule="evenodd" d="M17.0822 8.0421H23.6058C23.6658 7.88951 23.6287 7.32493 23.6293 7.06394C23.6297 6.95259 23.6649 6.80776 23.5587 6.80776H18.5659C18.5659 6.50645 18.5181 5.22026 18.5893 5.03775H22.7344V3.68698H18.5659V1.94016C18.7148 1.8833 20.7535 1.91697 21.0859 1.91697C21.9337 1.91697 22.7815 1.91697 23.6293 1.91697V0.705933H17.0822V8.0421Z" fill="black"/>
<path fill-rule="evenodd" clip-rule="evenodd" d="M39.1022 8.0421H45.6258V6.80776H40.5859V5.03775H44.7544V3.68698H40.5859V1.94016C40.7438 1.87983 45.0696 1.91697 45.6258 1.91697V0.705933H39.1022V8.0421Z" fill="black"/>
<path fill-rule="evenodd" clip-rule="evenodd" d="M57.6603 11.1629H57.8487V11.9081H58.2723L58.2726 11.1629H58.4846V11.9081H59.2382V11.1629H59.4971C59.4312 11.3318 59.4737 11.9195 59.4737 12.141C59.166 12.141 57.8461 12.0932 57.6603 12.1642V11.1629ZM57.8722 10.3943H58.2726L58.4217 10.1225C58.4508 10.0677 58.4594 10.0636 58.4842 10.0213C58.7666 9.53918 58.551 9.64907 59.4502 9.64907L59.4509 10.4411C59.4725 10.6228 59.4903 10.4232 59.4763 10.56C59.4646 10.6734 59.2708 10.6272 58.9556 10.6272V10.3943H59.2382V9.85868H58.932L58.7043 10.2389C58.6634 10.316 58.6385 10.3573 58.5927 10.4314C58.5461 10.5069 58.5236 10.5543 58.4846 10.6272H57.6603V9.62578H58.1549V9.85868H57.8722V10.3943ZM57.8957 9.09013H57.6603V8.13513C57.753 8.09973 57.7681 8.11197 57.8722 8.11197V8.48458H59.4737V8.71748H57.8722C57.8722 8.83942 57.8542 8.98378 57.8957 9.09013ZM58.0607 6.87763H58.3433V7.11051C58.1882 7.11051 57.9855 7.08143 57.8487 7.1337V6.13235H58.5787C58.5804 6.19996 58.9867 6.70183 59.0498 6.73789V6.13235H59.2618V7.1337C59.1671 7.09755 59.1328 7.11051 59.0262 7.11051C58.8859 6.9033 58.5168 6.51718 58.4139 6.36525H58.0607V6.87763ZM57.8487 4.52526C57.9856 4.47297 59.1248 4.47297 59.2618 4.52526V5.48026H57.8487V4.52526ZM57.8487 2.89513H59.2618V3.87329H57.8487V2.89513ZM58.7435 2.24304H57.8487V1.28804C58.0125 1.22549 59.0058 1.26488 59.2618 1.26488V2.24304H59.0262V1.49776H58.7201C58.7201 1.70392 58.6747 2.06677 58.7435 2.24304ZM57.0951 12.7H60.0154V0.705933H57.0951V12.7Z" fill="black"/>
<path fill-rule="evenodd" clip-rule="evenodd" d="M49.441 8.04206H55.6114V6.69126H50.9012L50.9051 0.772855C50.8948 0.670803 50.9698 0.705903 50.3831 0.705903C50.0691 0.705903 49.7551 0.705903 49.441 0.705903V8.04206Z" fill="black"/>
<path fill-rule="evenodd" clip-rule="evenodd" d="M11.8304 8.0421H13.2669V0.705933H11.8304V8.0421Z" fill="black"/>
<path fill-rule="evenodd" clip-rule="evenodd" d="M39.2434 9.99855H39.9736V10.9068H39.2434C39.1976 10.7897 39.1976 10.1157 39.2434 9.99855ZM38.7725 12.7001H39.2199V11.326C39.4329 11.326 39.3753 11.3187 39.4569 11.4643L40.1384 12.7001H40.7272C40.6938 12.6378 40.6653 12.5996 40.6327 12.5374L39.9736 11.326H40.4446V9.57935H38.7725V12.7001Z" fill="black"/>
<path fill-rule="evenodd" clip-rule="evenodd" d="M28.5986 12.6998H29.2109L29.7055 11.3257C29.8448 11.3288 29.8263 11.38 29.9083 11.6141C29.9516 11.7375 29.9937 11.8502 30.0421 11.971L30.2942 12.6998H30.9301L30.4626 11.4853C30.2378 10.8835 30.2196 11.2204 30.5802 10.3276C30.6282 10.2088 30.6778 10.0921 30.7318 9.9651C30.7776 9.85708 30.8595 9.67897 30.883 9.57901H30.2471C30.2338 9.73663 30.0666 10.1259 30.0143 10.2804L29.8402 10.8068C29.8096 10.8987 29.821 10.9039 29.7055 10.9065L29.2613 9.57788L28.6692 9.57901C28.6775 9.6779 28.7664 9.85375 28.8139 9.97159L29.13 10.7303C29.2176 10.9481 29.281 10.9793 29.2228 11.1259C29.1136 11.401 29.0218 11.6426 28.9115 11.9146L28.5986 12.6998Z" fill="black"/>
<path fill-rule="evenodd" clip-rule="evenodd" d="M15.834 9.99855H16.7289C16.6793 10.1254 16.6793 12.1307 16.7289 12.2576H15.834V9.99855ZM15.3866 12.7001H17.1529V9.57935H15.3866V12.7001Z" fill="black"/>
<path fill-rule="evenodd" clip-rule="evenodd" d="M0.83198 9.99855H1.67995V10.9068H0.83198C0.786251 10.7897 0.786251 10.1157 0.83198 9.99855ZM0.384644 12.7001H0.808559C0.808559 12.4339 0.760882 11.5081 0.83198 11.326H1.67995V12.7001H2.15686L2.15096 9.57935H0.384644V12.7001Z" fill="black"/>
<path fill-rule="evenodd" clip-rule="evenodd" d="M53.7979 11.0466L55.1168 11.7918C55.1168 11.9452 55.0874 12.1456 55.1402 12.2809H54.2454V11.7918H53.7979V12.7001H55.5642V11.3726L54.6033 10.8324C54.5275 10.7855 54.3464 10.6711 54.2689 10.6506V9.99855C54.487 9.99855 54.9634 9.95416 55.1403 10.0217V10.4876H55.5642V9.57935H53.7979V11.0466Z" fill="black"/>
<path fill-rule="evenodd" clip-rule="evenodd" d="M48.8051 11.0466L49.9261 11.6847C49.9966 11.7274 50.0123 11.7482 50.1004 11.7685V12.2809H49.229V11.7918H48.8051V12.7001H50.5479V11.3726L49.59 10.8293C49.5215 10.7937 49.4981 10.7741 49.4252 10.7362C49.3553 10.6997 49.3331 10.6692 49.2526 10.6506V9.99855C49.4706 9.99855 49.9471 9.95416 50.124 10.0217V10.4876H50.5714V9.57935H48.8051V11.0466Z" fill="black"/>
<path fill-rule="evenodd" clip-rule="evenodd" d="M5.37744 12.7001H7.14376V9.57935H6.69628V12.3042C6.47826 12.3042 6.0018 12.2598 5.82492 12.3274V9.57935H5.37744V12.7001Z" fill="black"/>
<path fill-rule="evenodd" clip-rule="evenodd" d="M43.7888 12.7001H45.5551V12.2576H44.2363V11.0697C44.415 11.0015 45.2962 11.0466 45.5551 11.0466V10.6506C45.2962 10.6506 44.415 10.6056 44.2363 10.6738V9.99855H45.5551V9.57935H43.7888V12.7001Z" fill="black"/>
<path fill-rule="evenodd" clip-rule="evenodd" d="M23.8884 12.7001H25.6547C25.6547 12.4135 25.6965 12.2576 25.5841 12.2576H24.3123V11.0466H25.6547V10.6506H24.3123V9.99855H25.5841C25.6947 9.99855 25.6547 9.85546 25.6547 9.57935H23.8884V12.7001Z" fill="black"/>
<path fill-rule="evenodd" clip-rule="evenodd" d="M34.3214 9.99855H35.0986V10.9068H34.3214V9.99855ZM33.8975 12.7001H34.345V12.1877C34.345 11.8709 34.3214 11.6407 34.3214 11.326H35.5461V9.57935H33.8975V12.7001Z" fill="black"/>
<path fill-rule="evenodd" clip-rule="evenodd" d="M10.3938 9.99855H11.0768V12.7001H11.5007C11.5007 12.3264 11.4575 10.1691 11.5241 9.99855H12.1601V9.57935H10.3938V9.99855Z" fill="black"/>
<path fill-rule="evenodd" clip-rule="evenodd" d="M58.0607 3.64039C58.3118 3.64039 58.5631 3.63981 58.8143 3.64039C59.1021 3.64107 59.0498 3.77668 59.0498 3.10474H58.0607V3.64039Z" fill="black"/>
<path fill-rule="evenodd" clip-rule="evenodd" d="M58.0607 5.24733H59.0498V4.73499H58.0607V5.24733Z" fill="black"/>
<path fill-rule="evenodd" clip-rule="evenodd" d="M58.0607 2.01006H58.461V1.49768H58.0607V2.01006Z" fill="black"/>
</svg>
